<?xml version="1.0" standalone="no"?>
<!DOCTYPE svg PUBLIC "-//W3C//DTD SVG 20010904//EN"
 "http://www.w3.org/TR/2001/REC-SVG-20010904/DTD/svg10.dtd">
<svg version="1.0" xmlns="http://www.w3.org/2000/svg"
 width="260.000000pt" height="260.000000pt" viewBox="0 0 260.000000 260.000000"
 preserveAspectRatio="xMidYMid meet">
<metadata>
Created by potrace 1.11, written by Peter Selinger 2001-2013
</metadata>
<g transform="translate(0.000000,260.000000) scale(0.100000,-0.100000)"
fill="#000000" stroke="none">
<path d="M1356 2544 c-24 -12 -31 -12 -38 -2 -4 7 -8 8 -8 3 0 -6 -31 -11 -74
-11 -48 0 -86 -6 -110 -18 -20 -9 -40 -14 -46 -11 -5 3 -14 -4 -20 -15 -12
-22 -39 -23 -77 -2 -31 17 -61 15 -66 -5 -4 -17 -5 -17 -6 0 -2 27 -21 20 -21
-7 0 -14 -5 -28 -12 -32 -8 -5 -9 -2 -5 9 8 20 -6 22 -22 3 -26 -31 -70 -249
-52 -260 6 -4 6 -54 -3 -253 -4 -85 -10 -123 -26 -158 -12 -26 -19 -49 -17
-52 3 -2 -1 -16 -8 -30 -8 -15 -12 -30 -10 -34 3 -4 -2 -12 -10 -19 -8 -7 -15
-19 -15 -26 0 -8 -4 -22 -10 -32 -17 -29 -33 -76 -36 -102 -8 -77 -8 -110 -1
-110 4 0 5 -24 2 -52 -4 -29 -7 -68 -8 -85 -1 -18 -5 -33 -9 -33 -4 0 -5 -6
-2 -14 3 -8 1 -17 -4 -20 -6 -3 -8 -16 -4 -28 4 -16 2 -19 -8 -13 -10 6 -12 4
-7 -9 4 -10 1 -19 -8 -22 -8 -3 -14 -18 -14 -32 0 -15 -2 -53 -3 -85 -2 -31 0
-57 5 -57 13 0 7 -136 -9 -186 -8 -27 -17 -71 -19 -97 -3 -26 -14 -78 -25
-115 -25 -80 -25 -171 0 -189 9 -6 16 -22 15 -35 -2 -18 5 -25 34 -34 25 -7
36 -17 36 -30 0 -10 6 -19 13 -19 7 0 21 -15 33 -34 11 -18 23 -30 27 -27 3 4
2 10 -4 14 -7 4 -8 15 -3 27 4 12 8 14 8 6 1 -11 5 -10 15 5 20 27 31 11 13
-18 -13 -20 -14 -27 -2 -53 9 -19 14 -24 14 -12 1 15 12 20 38 16 3 0 11 7 17
18 9 17 10 16 16 -7 6 -25 50 -43 50 -21 0 6 4 11 10 11 5 0 9 -10 7 -22 -1
-15 3 -22 12 -20 7 1 19 -3 27 -9 8 -6 14 -8 14 -3 0 5 7 -2 16 -14 13 -19 62
-34 50 -14 -7 12 17 38 42 46 12 4 20 12 17 17 -13 19 15 8 29 -13 13 -18 17
-19 31 -8 13 11 18 11 24 1 6 -10 10 -9 15 4 3 9 10 13 16 10 5 -3 10 -1 10 6
0 7 6 5 13 -6 10 -13 16 -15 21 -6 4 6 12 8 18 5 6 -4 14 0 19 7 6 10 9 11 9
2 0 -19 56 -16 86 3 24 16 27 16 55 -5 22 -16 40 -21 64 -18 18 3 38 0 43 -5
6 -6 14 -4 23 4 8 7 22 14 32 14 9 1 23 2 30 3 8 0 19 12 25 26 12 26 37 33
45 13 3 -7 10 1 17 17 12 30 12 30 29 9 16 -20 17 -20 31 -2 14 17 17 17 44 3
36 -19 55 -19 62 0 5 11 11 12 25 4 25 -13 75 -8 72 8 -4 19 35 26 53 9 8 -9
13 -20 9 -25 -10 -17 13 -22 35 -9 12 8 19 20 16 30 -2 10 0 18 5 18 5 0 9 7
9 15 0 8 5 15 10 15 6 0 10 -13 10 -29 0 -54 36 -59 106 -16 29 17 32 25 37
82 10 99 37 134 56 71 l10 -33 -3 40 c-1 22 -5 46 -10 53 -4 6 -4 17 -1 23 4
6 9 29 11 52 2 22 9 44 15 48 8 5 7 13 -2 30 -14 26 -20 79 -9 79 4 0 6 16 4
35 -1 19 2 35 7 35 6 0 7 5 4 11 -4 5 -9 31 -10 57 -7 91 -14 125 -26 133 -10
6 -10 11 0 23 14 17 20 145 9 181 -4 11 -7 26 -7 33 -1 6 -8 12 -17 12 -23 0
-8 58 22 89 17 16 21 27 14 36 -5 6 -7 31 -3 56 3 24 5 74 4 112 -1 37 3 67 8
67 13 0 11 74 -2 83 -8 4 -4 9 10 13 21 6 21 7 6 23 -15 15 -15 16 0 19 20 4
20 7 6 33 -11 21 -13 108 -5 169 3 19 8 64 10 98 3 35 11 76 19 90 7 15 12 48
11 75 -1 26 2 47 7 47 5 0 9 33 9 74 0 77 -5 86 -51 86 -10 0 -19 4 -19 8 0 4
-15 8 -34 9 -18 1 -44 7 -57 14 -13 7 -27 12 -31 11 -5 -1 -8 2 -8 7 0 14 -70
43 -87 37 -9 -4 -21 -2 -28 4 -8 7 -15 7 -19 1 -4 -6 -19 -6 -42 1 -25 6 -39
6 -43 -1 -4 -6 -12 -6 -21 -1 -8 5 -21 5 -32 -1 -13 -7 -23 -6 -34 6 -27 26
-50 15 -33 -17 9 -17 7 -18 -18 -12 -15 4 -36 11 -46 16 -9 5 -22 6 -27 3 -6
-4 -23 0 -39 8 -20 10 -34 11 -46 4 -15 -8 -17 -6 -13 10 5 17 0 19 -31 18
-20 -1 -47 5 -59 13 -22 13 -23 12 -17 -7 9 -28 -25 -29 -45 -1 -8 11 -20 20
-27 20 -7 0 -13 4 -13 9 0 6 -9 8 -19 6 -11 -2 -22 3 -25 11 -3 9 -10 13 -15
9 -6 -3 -14 1 -18 10 -8 13 -12 13 -37 -1z m-246 -1914 c0 -20 -5 -30 -14 -30
-12 0 -13 6 -5 30 6 17 13 30 15 30 2 0 4 -13 4 -30z"/>
</g>
</svg>
