<?xml version="1.0" encoding="UTF-8"?>
<!DOCTYPE svg PUBLIC "-//W3C//DTD SVG 1.1//EN" "http://www.w3.org/Graphics/SVG/1.1/DTD/svg11.dtd">
<svg xmlns="http://www.w3.org/2000/svg" style="height: 0; width: 0; position: absolute; visibility: hidden">
    <symbol viewBox="0 0 436.7 436.7" id="navigate2">
        <path d="M427.8 194.3c11.9 11.9 11.9 31.3 0 43.2L240 425.4c-6 6-13.8 8.9-21.6 8.9s-15.7-3-21.6-8.9L9 237.6c-11.9-11.9-11.9-31.3 0-43.2 11.9-11.9 31.3-11.9 43.2 0l166.2 166.2 166.2-166.2C396.4 182.4 415.8 182.4 427.8 194.3zM196.7 242.4c6 6 13.8 8.9 21.6 8.9s15.7-3 21.6-8.9L427.8 54.6c11.9-11.9 11.9-31.3 0-43.3 -11.9-11.9-31.3-11.9-43.2 0L218.4 177.5 52.2 11.4c-11.9-11.9-31.3-11.9-43.2 0 -11.9 11.9-11.9 31.3 0 43.3L196.7 242.4z"/>
    </symbol>
</svg>
