<svg xmlns="http://www.w3.org/2000/svg" style="height: 0; width: 0; position: absolute; visibility: hidden">
    <symbol viewBox="0 0 436.7 436.7" id="navigate2">
        <path d="M427.8 194.3c11.9 11.9 11.9 31.3 0 43.2L240 425.4c-6 6-13.8 8.9-21.6 8.9s-15.7-3-21.6-8.9L9 237.6c-11.9-11.9-11.9-31.3 0-43.2 11.9-11.9 31.3-11.9 43.2 0l166.2 166.2 166.2-166.2C396.4 182.4 415.8 182.4 427.8 194.3zM196.7 242.4c6 6 13.8 8.9 21.6 8.9s15.7-3 21.6-8.9L427.8 54.6c11.9-11.9 11.9-31.3 0-43.3 -11.9-11.9-31.3-11.9-43.2 0L218.4 177.5 52.2 11.4c-11.9-11.9-31.3-11.9-43.2 0 -11.9 11.9-11.9 31.3 0 43.3L196.7 242.4z"/>
    </symbol>
    <symbol viewBox="0 0 199.4 199.4" id="single-arrow-up">
        <polygon points="0 135.41 28.29 163.7 99.7 92.28 171.12 163.7 199.4 135.41 99.7 35.71"/>
    </symbol>
    <symbol viewBox="0 0 153.852 153.852" id="horizontal-arrow-left-up">
        <polygon points="141,40 141,0 0,0 0,141 40,141 40,65.702 128.148,153.852 153.852,128.148 65.703,40"/>
    </symbol>
    <!--I messed around with the viewbox a bit since the svg-stroke was cut off-->
    <symbol viewBox="-10 -10 240.682 240.682" id="double-arrow-down">
        <path d="M110.34 220.682l99.703-99.702-28.285-28.285-71.417 71.418-71.416-71.418L10.64 120.98z"/>
        <path d="M210.043 28.284L181.758 0 110.34 71.418 38.925 0 10.64 28.284l99.7 99.702z"/>
    </symbol>
</svg>
